name analog
datacolumns 19
datarows 40
range 0.28700000000000003 0.3065
endheader
time	ground_force_vx	ground_force_vy	ground_force_vz	ground_force_px	ground_force_py	ground_force_pz	l_ground_force_vx	l_ground_force_vy	l_ground_force_vz	l_ground_force_px	l_ground_force_py	l_ground_force_pz	ground_torque_x	ground_torque_y	ground_torque_z	l_ground_torque_x	l_ground_torque_y	l_ground_torque_z
0.28700000000000003	-0.0	-0.0	-0.0	-0.0	-0.0	-0.0	-1.3822362422943115	-0.6313964128494263	-493.89849853515625	-0.0	-0.0	-0.0	-0.0	-0.0	-0.0	174350.296875	-25522.41015625	-1908.058349609375
0.28750000000000003	-0.0	-0.0	-0.0	-0.0	-0.0	-0.0	-1.976734399795532	-0.1650169640779495	-495.6896667480469	-0.0	-0.0	-0.0	-0.0	-0.0	-0.0	174731.625	-25429.919921875	-1920.6357421875
0.28800000000000003	-0.0	-0.0	-0.0	-0.0	-0.0	-0.0	-2.511105537414551	0.3646711409091949	-496.5921325683594	-0.0	-0.0	-0.0	-0.0	-0.0	-0.0	175212.4375	-25234.130859375	-2205.2041015625
0.2885	-0.0	-0.0	-0.0	-0.0	-0.0	-0.0	-2.4977352619171143	0.9963882565498352	-496.6900634765625	-0.0	-0.0	-0.0	-0.0	-0.0	-0.0	175204.4375	-25358.6796875	-2298.626220703125
0.289	-0.0	-0.0	-0.0	-0.0	-0.0	-0.0	-2.650479316711426	1.8191792964935305	-498.2820434570313	-0.0	-0.0	-0.0	-0.0	-0.0	-0.0	175964.859375	-25290.173828125	-2102.873291015625
0.2895	-0.0	-0.0	-0.0	-0.0	-0.0	-0.0	-2.157513380050659	1.9289122819900515	-500.1805419921875	-0.0	-0.0	-0.0	-0.0	-0.0	-0.0	176749.859375	-25455.41015625	-1907.8450927734373
0.29	-0.0	-0.0	-0.0	-0.0	-0.0	-0.0	-1.7597570419311523	2.522291421890259	-500.9351806640625	-0.0	-0.0	-0.0	-0.0	-0.0	-0.0	177303.96875	-25691.67578125	-1862.5621337890625
0.2905	-0.0	-0.0	-0.0	-0.0	-0.0	-0.0	-1.365399956703186	2.645077705383301	-502.42919921875	-0.0	-0.0	-0.0	-0.0	-0.0	-0.0	177485.484375	-25543.662109375	-1506.445068359375
0.291	-0.0	-0.0	-0.0	-0.0	-0.0	-0.0	-1.5573123693466189	2.610342025756836	-503.53515625	-0.0	-0.0	-0.0	-0.0	-0.0	-0.0	177770.515625	-25764.15234375	-1407.856689453125
0.2915	-0.0	-0.0	-0.0	-0.0	-0.0	-0.0	-1.6213362216949463	2.7774250507354736	-503.9223937988281	-0.0	-0.0	-0.0	-0.0	-0.0	-0.0	177820.4375	-25473.27734375	-1381.4066162109375
0.292	-0.0	-0.0	-0.0	-0.0	-0.0	-0.0	-1.966904878616333	2.6192493438720703	-504.2350463867188	-0.0	-0.0	-0.0	-0.0	-0.0	-0.0	177997.953125	-25476.17578125	-1357.0931396484375
0.2925	-0.0	-0.0	-0.0	-0.0	-0.0	-0.0	-1.3639705181121826	3.1795806884765625	-506.1387634277344	-0.0	-0.0	-0.0	-0.0	-0.0	-0.0	178154.859375	-25685.154296875	-1162.2427978515625
0.293	-0.0	-0.0	-0.0	-0.0	-0.0	-0.0	-1.17758309841156	3.404696226119995	-505.1606750488281	-0.0	-0.0	-0.0	-0.0	-0.0	-0.0	178453.546875	-25707.1015625	-941.0819702148438
0.2935	-0.0	-0.0	-0.0	-0.0	-0.0	-0.0	-1.2176785469055176	3.854506731033325	-505.7330322265625	-0.0	-0.0	-0.0	-0.0	-0.0	-0.0	178615.203125	-25809.6015625	-763.0355224609375
0.294	-0.0	-0.0	-0.0	-0.0	-0.0	-0.0	-1.1854901313781738	4.062797546386719	-506.2380981445313	-0.0	-0.0	-0.0	-0.0	-0.0	-0.0	178513.734375	-25765.435546875	-719.8388061523438
0.2945	-0.0	-0.0	-0.0	-0.0	-0.0	-0.0	-1.104971408843994	4.175147533416748	-506.7447814941406	-0.0	-0.0	-0.0	-0.0	-0.0	-0.0	178850.09375	-25850.681640625	-690.068603515625
0.295	-0.0	-0.0	-0.0	-0.0	-0.0	-0.0	-1.6373867988586426	4.263394355773926	-508.1695556640625	-0.0	-0.0	-0.0	-0.0	-0.0	-0.0	179001.921875	-25763.31640625	-763.301513671875
0.2955	-0.0	-0.0	-0.0	-0.0	-0.0	-0.0	-1.460109829902649	4.368320941925049	-509.2234191894531	-0.0	-0.0	-0.0	-0.0	-0.0	-0.0	179357.171875	-25911.9375	-541.9025268554688
0.296	-0.0	-0.0	-0.0	-0.0	-0.0	-0.0	-1.5010907649993896	4.721729278564453	-509.0630493164063	-0.0	-0.0	-0.0	-0.0	-0.0	-0.0	179355.328125	-26003.7578125	-460.8299865722656
0.2965	-0.0	-0.0	-0.0	-0.0	-0.0	-0.0	-1.5252480506896973	4.433173656463623	-510.1780700683594	-0.0	-0.0	-0.0	-0.0	-0.0	-0.0	179653.84375	-25678.134765625	-350.1874694824219
0.297	-0.0	-0.0	-0.0	-0.0	-0.0	-0.0	-1.5967941284179688	3.968102216720581	-511.6690979003906	-0.0	-0.0	-0.0	-0.0	-0.0	-0.0	179614.5	-26030.884765625	-442.9476623535156
0.2975	-0.0	-0.0	-0.0	-0.0	-0.0	-0.0	-1.92792010307312	4.050535678863525	-513.671142578125	-0.0	-0.0	-0.0	-0.0	-0.0	-0.0	179972.0625	-25963.568359375	-405.6489562988281
0.298	-0.0	-0.0	-0.0	-0.0	-0.0	-0.0	-2.070080280303955	3.5270438194274902	-512.5545654296875	-0.0	-0.0	-0.0	-0.0	-0.0	-0.0	180215.859375	-25952.423828125	-340.73486328125
0.2985	-0.0	-0.0	-0.0	-0.0	-0.0	-0.0	-1.6439517736434937	3.615609169006348	-513.3677368164062	-0.0	-0.0	-0.0	-0.0	-0.0	-0.0	180229.046875	-26180.72265625	-310.7861633300781
0.299	-0.0	-0.0	-0.0	-0.0	-0.0	-0.0	-1.9698377847671509	3.538147211074829	-513.2529296875	-0.0	-0.0	-0.0	-0.0	-0.0	-0.0	180444.734375	-26027.78125	-334.666015625
0.2995	-0.0	-0.0	-0.0	-0.0	-0.0	-0.0	-2.1759212017059326	3.174588918685913	-514.8866577148438	-0.0	-0.0	-0.0	-0.0	-0.0	-0.0	180268.0	-26228.5	-364.5447692871094
0.3	-0.0	-0.0	-0.0	-0.0	-0.0	-0.0	-2.53064227104187	3.1795806884765625	-513.7860107421875	-0.0	-0.0	-0.0	-0.0	-0.0	-0.0	180531.046875	-26015.544921875	-570.8286743164062
0.3005	-0.0	-0.0	-0.0	-0.0	-0.0	-0.0	-2.526026725769043	2.9609973430633545	-515.0162353515625	-0.0	-0.0	-0.0	-0.0	-0.0	-0.0	180544.0625	-25999.5	-638.0753784179688
0.301	-0.0	-0.0	-0.0	-0.0	-0.0	-0.0	-3.1471431255340576	2.3657257556915283	-515.1814575195312	-0.0	-0.0	-0.0	-0.0	-0.0	-0.0	180597.546875	-26015.697265625	-854.129150390625
0.3015	-0.0	-0.0	-0.0	-0.0	-0.0	-0.0	-3.698756217956543	2.399909496307373	-514.5737915039062	-0.0	-0.0	-0.0	-0.0	-0.0	-0.0	180362.515625	-25877.076171875	-855.8489990234375
0.302	-0.0	-0.0	-0.0	-0.0	-0.0	-0.0	-4.408828258514404	2.646039724349976	-515.5918579101562	-0.0	-0.0	-0.0	-0.0	-0.0	-0.0	180381.171875	-25665.57421875	-1176.01220703125
0.3025	-0.0	-0.0	-0.0	-0.0	-0.0	-0.0	-5.384951591491699	2.888325452804565	-512.826416015625	-0.0	-0.0	-0.0	-0.0	-0.0	-0.0	179950.078125	-25892.513671875	-1678.548828125
0.303	-0.0	-0.0	-0.0	-0.0	-0.0	-0.0	-6.189888000488281	2.920750379562378	-512.4764404296875	-0.0	-0.0	-0.0	-0.0	-0.0	-0.0	179997.234375	-25575.197265625	-1990.1207275390625
0.3035	-0.0	-0.0	-0.0	-0.0	-0.0	-0.0	-6.229838848114014	3.0229332447052	-513.2529296875	-0.0	-0.0	-0.0	-0.0	-0.0	-0.0	179796.484375	-25622.2109375	-2043.7657470703125
0.304	-0.0	-0.0	-0.0	-0.0	-0.0	-0.0	-6.589960098266602	3.045830011367798	-511.3375549316406	-0.0	-0.0	-0.0	-0.0	-0.0	-0.0	179480.84375	-25728.912109375	-2126.169677734375
0.3045	-0.0	-0.0	-0.0	-0.0	-0.0	-0.0	-6.612311840057373	3.4920504093170166	-511.60540771484375	-0.0	-0.0	-0.0	-0.0	-0.0	-0.0	179341.328125	-25568.955078125	-2444.618896484375
0.305	-0.0	-0.0	-0.0	-0.0	-0.0	-0.0	-7.431023597717285	3.7998178005218506	-510.7195739746094	-0.0	-0.0	-0.0	-0.0	-0.0	-0.0	179423.4375	-25556.361328125	-2629.920654296875
0.3055	-0.0	-0.0	-0.0	-0.0	-0.0	-0.0	-7.806549072265625	4.636036396026611	-511.7673034667969	-0.0	-0.0	-0.0	-0.0	-0.0	-0.0	179493.046875	-25649.947265625	-2822.458251953125
0.306	-0.0	-0.0	-0.0	-0.0	-0.0	-0.0	-7.805145740509033	5.367987632751465	-512.9923706054688	-0.0	-0.0	-0.0	-0.0	-0.0	-0.0	179883.03125	-25706.861328125	-2807.204833984375
0.3065	-0.0	-0.0	-0.0	-0.0	-0.0	-0.0	-6.854357719421387	5.78449296951294	-511.5162658691406	-0.0	-0.0	-0.0	-0.0	-0.0	-0.0	180088.5625	-25569.50390625	-2635.604248046875
